<svg width="31" height="26" viewBox="0 0 31 26" fill="none" xmlns="http://www.w3.org/2000/svg">
<path fill-rule="evenodd" clip-rule="evenodd" d="M23.5 6H1.5C0.671938 6.00088 0.000881855 6.67194 0 7.5V24.5C0.000881855 25.3281 0.671938 25.9991 1.5 26H23.5C24.3281 25.9991 24.9991 25.3281 25 24.5V7.5C24.9991 6.67194 24.3281 6.00088 23.5 6ZM7.5 11H3.5C3.22386 11 3 10.7761 3 10.5C3 10.2239 3.22386 10 3.5 10H7.5C7.77614 10 8 10.2239 8 10.5C8 10.7761 7.77614 11 7.5 11ZM9.5 10C9.22386 10 9 10.2239 9 10.5C9 10.7761 9.22386 11 9.5 11H13.5C13.7761 11 14 10.7761 14 10.5C14 10.2239 13.7761 10 13.5 10H9.5ZM14.5 22C13.1193 22 12 20.8807 12 19.5C12 18.1193 13.1193 17 14.5 17C15.8807 17 17 18.1193 17 19.5C17 20.8807 15.8807 22 14.5 22ZM17.2437 21.6489C17.6235 21.8763 18.0574 21.9976 18.5 22C19.8807 22 21 20.8807 21 19.5C21 18.1193 19.8807 17 18.5 17C18.0574 17.0024 17.6235 17.1236 17.2437 17.351C18.2522 18.6062 18.2522 20.3937 17.2437 21.6489Z" fill="#D84727"/>
<circle cx="24" cy="7" r="6" fill="#D84727" stroke="white"/>
<path d="M22 7.5L24 9L27 5" stroke="white" stroke-linecap="round" stroke-linejoin="round"/>
</svg>
