<svg width="34" height="28" viewBox="0 0 34 28" fill="none" xmlns="http://www.w3.org/2000/svg">
<path fill-rule="evenodd" clip-rule="evenodd" d="M28.2 4H1.8C0.805887 4 0 4.80589 0 5.8V26.2C0 27.1941 0.805887 28 1.8 28H28.2C29.1941 28 30 27.1941 30 26.2V5.8C30 4.80589 29.1941 4 28.2 4ZM28.8 26.2C28.8 26.5314 28.5313 26.8 28.2 26.8H1.79995C1.46858 26.8 1.19995 26.5314 1.19995 26.2V5.80003C1.19995 5.46866 1.46858 5.20003 1.79995 5.20003H28.2C28.5313 5.20003 28.8 5.46866 28.8 5.80003V26.2ZM7.79985 11.2C8.13122 11.2 8.39985 10.9314 8.39985 10.6C8.39985 10.2686 8.13122 9.99998 7.79985 9.99998H4.19985C3.86848 9.99998 3.59985 10.2686 3.59985 10.6C3.59985 10.9314 3.86848 11.2 4.19985 11.2H7.79985ZM14.9999 11.2H10.1999C9.86854 11.2 9.59991 10.9314 9.59991 10.6C9.59991 10.2686 9.86854 9.99998 10.1999 9.99998H14.9999C15.3313 9.99998 15.5999 10.2686 15.5999 10.6C15.5999 10.9314 15.3313 11.2 14.9999 11.2ZM19.8002 16.76C20.5029 16.2656 21.341 16.0002 22.2002 16C24.0093 15.999 25.6155 17.1571 26.186 18.8738C26.7566 20.5905 26.1631 22.4797 24.7134 23.5617C23.2636 24.6438 21.2837 24.6754 19.8002 23.6401C18.0547 24.8627 15.6701 24.5843 14.2533 22.9923C12.8364 21.4004 12.8364 18.9996 14.2533 17.4077C15.6701 15.8158 18.0547 15.5373 19.8002 16.76ZM17.4 23.2C15.7432 23.2 14.4 21.8568 14.4 20.2C14.4 18.5431 15.7432 17.2 17.4 17.2C19.0569 17.2 20.4 18.5431 20.4 20.2C20.3981 21.8561 19.0561 23.1981 17.4 23.2ZM20.6927 22.7787C21.1485 23.0514 21.669 23.1969 22.2001 23.2C23.8569 23.2 25.2001 21.8568 25.2001 20.2C25.2001 18.5431 23.8569 17.2 22.2001 17.2C21.669 17.203 21.1485 17.3485 20.6927 17.6212C21.9025 19.1275 21.9025 21.2724 20.6927 22.7787Z" fill="#999999"/>
<circle cx="27" cy="7" r="6" fill="#999999" stroke="white"/>
<path d="M25 7.5L27 9L30 5" stroke="white" stroke-linecap="round" stroke-linejoin="round"/>
</svg>
