<svg width="31" height="29" viewBox="0 0 31 29" fill="none" xmlns="http://www.w3.org/2000/svg">
<path fill-rule="evenodd" clip-rule="evenodd" d="M5.0134 1.88002V5.0134H0V1.88002C0 0.841715 0.841715 0 1.88002 0H3.13337C4.17168 0 5.0134 0.841715 5.0134 1.88002ZM28.2003 0H9.40007C8.36176 0 7.52004 0.841715 7.52004 1.88002V26.947C7.52004 27.9853 8.36176 28.827 9.40007 28.827H28.2003C29.2386 28.827 30.0803 27.9853 30.0803 26.947V1.88002C30.0803 0.841715 29.2386 0 28.2003 0ZM16.1099 19.87L13.6032 22.3767C13.3585 22.6213 12.9618 22.6213 12.7171 22.3767L11.4638 21.1233C11.2263 20.8774 11.2297 20.4866 11.4714 20.2448C11.7131 20.0031 12.104 19.9997 12.3499 20.2372L13.1602 21.0475L15.2238 18.9838C15.4697 18.7464 15.8606 18.7498 16.1023 18.9915C16.344 19.2332 16.3474 19.6241 16.1099 19.87ZM13.6032 16.1099L16.1099 13.6032C16.3474 13.3573 16.344 12.9665 16.1023 12.7247C15.8606 12.483 15.4697 12.4796 15.2238 12.7171L13.1602 14.7807L12.3499 13.9705C12.104 13.733 11.7131 13.7364 11.4714 13.9781C11.2297 14.2198 11.2263 14.6107 11.4638 14.8566L12.7171 16.1099C12.9618 16.3546 13.3585 16.3546 13.6032 16.1099ZM16.1099 7.33646L13.6032 9.84316C13.3585 10.0878 12.9618 10.0878 12.7171 9.84316L11.4638 8.58981C11.2263 8.34392 11.2297 7.95306 11.4714 7.71133C11.7131 7.4696 12.104 7.4662 12.3499 7.70369L13.1602 8.51398L15.2238 6.45034C15.3812 6.28744 15.6142 6.2221 15.8333 6.27945C16.0524 6.3368 16.2235 6.50791 16.2808 6.72702C16.3382 6.94612 16.2729 7.17912 16.1099 7.33646ZM18.1737 21.3069H25.6938C26.0399 21.3069 26.3205 21.0264 26.3205 20.6803C26.3205 20.3342 26.0399 20.0536 25.6938 20.0536H18.1737C17.8276 20.0536 17.547 20.3342 17.547 20.6803C17.547 21.0264 17.8276 21.3069 18.1737 21.3069ZM25.6938 15.0402H18.1737C17.8276 15.0402 17.547 14.7596 17.547 14.4135C17.547 14.0674 17.8276 13.7868 18.1737 13.7868H25.6938C26.0399 13.7868 26.3205 14.0674 26.3205 14.4135C26.3205 14.7596 26.0399 15.0402 25.6938 15.0402ZM18.1737 8.77344H25.6938C26.0399 8.77344 26.3205 8.49287 26.3205 8.14676C26.3205 7.80066 26.0399 7.52009 25.6938 7.52009H18.1737C17.8276 7.52009 17.547 7.80066 17.547 8.14676C17.547 8.49287 17.8276 8.77344 18.1737 8.77344ZM5.0134 6.26674H0V26.947C0 27.9853 0.841715 28.827 1.88002 28.827H3.13337C4.17168 28.827 5.0134 27.9853 5.0134 26.947V6.26674Z" fill="#D84727"/>
</svg>
